Coordinates
version=1
nRows=54
nColumns=12
inDegrees=yes

Units are S.I. units (second, meters, Newtons, ...)
Angles are in degrees

endheader
time	SC_y	SC_z	SC_x	AC_y	AC_z	AC_x	GH_y	GH_z	GH_yy	EL_x	PS_y
       0.0              -34.44           7.47          81.61          31.48         -7.908          -13.1          113.1          61.68          178.5          87.42          7.093
   0.02766              -34.45          7.474          81.61          31.48         -7.909          -13.1          113.1          61.68          178.4          87.43           7.11
   0.05532              -34.45          7.477          81.61          31.48          -7.91          -13.1          113.0          61.67          178.4          87.43          7.128
   0.08298              -34.45          7.481          81.61          31.48         -7.911          -13.1          113.0          61.67          178.4          87.43          7.147
    0.1106              -34.45          7.485          81.61          31.48         -7.913          -13.1          113.0          61.66          178.4          87.43          7.168
    0.1383              -34.46          7.489          81.61          31.49         -7.914          -13.1          113.0          61.66          178.3          87.44           7.19
     0.166              -34.46          7.494           81.6          31.49         -7.915          -13.1          112.9          61.65          178.3          87.44          7.213
    0.1936              -34.46          7.498           81.6          31.49         -7.916          -13.1          112.9          61.64          178.3          87.44          7.238
    0.2213              -34.47          7.504           81.6          31.49         -7.918          -13.1          112.8          61.64          178.2          87.44          7.265
    0.2489              -34.47          7.509           81.6           31.5         -7.919          -13.1          112.8          61.63          178.2          87.45          7.294
    0.2766              -34.48          7.515           81.6           31.5         -7.921          -13.1          112.8          61.62          178.2          87.45          7.325
    0.3042              -34.48          7.522           81.6           31.5         -7.923          -13.1          112.7          61.61          178.1          87.45          7.358
    0.3319              -34.49          7.528           81.6           31.5         -7.925         -13.09          112.6          61.61          178.1          87.46          7.394
    0.3596              -34.49          7.536           81.6          31.51         -7.927         -13.09          112.6           61.6          178.0          87.46          7.432
    0.3872               -34.5          7.544           81.6          31.51         -7.929         -13.09          112.5          61.59          178.0          87.47          7.474
    0.4149              -34.51          7.553           81.6          31.52         -7.932         -13.09          112.5          61.57          177.9          87.47           7.52
    0.4425              -34.51          7.562           81.6          31.52         -7.935         -13.09          112.4          61.56          177.9          87.48          7.569
    0.4702              -34.52          7.573          81.59          31.52         -7.938         -13.09          112.3          61.55          177.8          87.48          7.623
    0.4979              -34.53          7.584          81.59          31.53         -7.941         -13.09          112.2          61.53          177.7          87.49          7.681
    0.5255              -34.54          7.596          81.59          31.54         -7.944         -13.08          112.1          61.52          177.6           87.5          7.746
    0.5532              -34.55           7.61          81.59          31.54         -7.948         -13.08          112.0           61.5          177.5          87.51          7.816
    0.5808              -34.56          7.625          81.59          31.55         -7.953         -13.08          111.9          61.48          177.4          87.52          7.894
    0.6085              -34.57          7.641          81.59          31.56         -7.957         -13.08          111.8          61.46          177.3          87.53           7.98
    0.6362              -34.59           7.66          81.58          31.56         -7.963         -13.07          111.6          61.44          177.2          87.54          8.075
    0.6638               -34.6           7.68          81.58          31.57         -7.968         -13.07          111.5          61.41          177.1          87.55           8.18
    0.6915              -34.62          7.703          81.58          31.58         -7.975         -13.07          111.3          61.38          176.9          87.56          8.298
    0.7191              -34.64          7.728          81.57           31.6         -7.982         -13.06          111.1          61.35          176.8          87.58           8.43
    0.7468              -34.66          7.757          81.57          31.61          -7.99         -13.06          110.9          61.31          176.6          87.59          8.579
    0.7744              -34.69          7.789          81.57          31.62           -8.0         -13.05          110.6          61.27          176.4          87.61          8.747
    0.8021              -34.72          7.826          81.56          31.64          -8.01         -13.05          110.3          61.22          176.1          87.64          8.937
    0.8298              -34.75          7.868          81.56          31.66         -8.022         -13.04          110.0          61.17          175.8          87.66          9.155
    0.8574              -34.79          7.916          81.55          31.68         -8.036         -13.03          109.7          61.11          175.5          87.69          9.405
    0.8851              -34.83          7.972          81.54          31.71         -8.052         -13.02          109.2          61.04          175.1          87.72          9.693
    0.9127              -34.88          8.036          81.53          31.74          -8.07         -13.01          108.7          60.96          174.7          87.76          10.03
    0.9404              -34.94          8.112          81.52          31.77         -8.092          -13.0          108.1          60.86          174.2           87.8          10.42
    0.9681              -35.01          8.201          81.51          31.81         -8.117         -12.99          107.5          60.74          173.6          87.86          10.88
    0.9957              -35.09          8.307           81.5          31.86         -8.147         -12.97          106.6          60.61          172.9          87.92          11.43
     1.023              -35.19          8.433          81.48          31.92         -8.184         -12.95          105.7          60.45          172.1          87.99          12.09
     1.051               -35.3          8.587          81.46          31.99         -8.228         -12.92          104.5          60.25          171.1          88.09          12.89
     1.079              -35.45          8.774          81.44          32.07         -8.281         -12.89          103.0          60.01          169.8           88.2          13.86
     1.106              -35.63          9.006          81.41          32.18         -8.347         -12.86          101.2          59.71          168.3          88.33          15.06
     1.134              -35.85          9.294          81.37          32.31          -8.43         -12.81           99.0          59.35          166.4           88.5          16.56
     1.162              -36.13          9.658          81.32          32.48         -8.534         -12.75          96.19          58.88          164.0          88.72          18.44
     1.189              -36.49          10.12          81.26          32.69         -8.666         -12.68          92.62          58.29          160.9          88.99          20.84
     1.217              -36.94          10.71          81.18          32.96         -8.835         -12.58          88.05          57.53          157.0          89.34          23.91
     1.245              -37.53          11.47          81.08          33.31         -9.052         -12.46          82.18          56.56          151.9          89.79          27.84
     1.272              -38.27          12.44          80.96          33.75         -9.329          -12.3          74.69          55.32          145.5          90.37          32.87
       1.3              -39.21          13.66           80.8          34.31         -9.678         -12.11          65.27          53.76          137.4          91.09           39.2
     1.328              -40.36          15.14           80.6          34.99          -10.1         -11.87          53.78          51.86          127.6          91.97          46.91
     1.355              -41.69          16.86          80.38          35.78         -10.59         -11.59          40.48          49.66          116.1          92.99          55.84
     1.383              -43.12          18.73          80.13          36.63         -11.13         -11.29          26.07          47.27          103.8          94.09          65.51
     1.411              -44.56          20.59          79.89          37.48         -11.66         -10.99          11.66          44.89          91.39           95.2          75.18
     1.438              -45.89          22.31          79.66          38.27         -12.15         -10.72         -1.653          42.68          79.97          96.22          84.12
     1.466              -47.03           23.8          79.47          38.95         -12.58         -10.48         -13.13          40.78          70.11           97.1          91.82
